PathFileType	4	(X/Y/Z)	Patient4_TMGait_0pt6_01_right_06.trc.trc
DataRate	CameraRate	NumFrames	NumMarkers	Units	OrigDataRate	OrigDataStartFrame	OrigNumFrames
82.840236686391	82.840236686391	4	33	mm	82.840236686391	106	       141
Frame#	Time	Sacral			L.Shoulder			Chest			R.Shoulder			Neck			R.ASIS			L.ASIS			R.Thigh.Superior			R.Thigh.Lateral			R.Thigh.Inferior			R.Patella			L.Thigh.Superior			L.Thigh.Lateral			L.Thigh.Inferior			L.Patella			L.Shank.Superior			L.Shank.Lateral			L.Shank.Inferior			R.Shank.Superior			R.Shank.Lateral			R.Shank.Inferior			R.Heel			R.Midfoot.Superior			R.Midfoot.Lateral			R.Toe			L.Heel			L.Midfoot.Lateral			L.Midfoot.Superior			L.Toe			L.Elbow			L.Wrist			R.Elbow			R.Wrist			
		X1	Y1	Z1	X2	Y2	Z2	X3	Y3	Z3	X4	Y4	Z4	X5	Y5	Z5	X6	Y6	Z6	X7	Y7	Z7	X8	Y8	Z8	X9	Y9	Z9	X10	Y10	Z10	X11	Y11	Z11	X12	Y12	Z12	X13	Y13	Z13	X14	Y14	Z14	X15	Y15	Z15	X16	Y16	Z16	X17	Y17	Z17	X18	Y18	Z18	X19	Y19	Z19	X20	Y20	Z20	X21	Y21	Z21	X22	Y22	Z22	X23	Y23	Z23	X24	Y24	Z24	X25	Y25	Z25	X26	Y26	Z26	X27	Y27	Z27	X28	Y28	Z28	X29	Y29	Z29	X30	Y30	Z30	X31	Y31	Z31	X32	Y32	Z32	X33	Y33	Z33	

106	7.987500000000	618.313423963252	1007.774479297269	435.076400456997	784.894640624073	1437.011042764828	247.275385185864	887.169744987598	1372.712737116832	410.621575630050	799.934617248735	1445.924288393052	582.097238743762	768.652363355824	1499.942923462096	398.716276905817	844.310498096632	950.292131613910	552.812668978671	836.292431790755	968.659478900602	277.707478700683	932.623556716943	784.194635929856	526.045986002121	898.080473723808	661.932421818287	601.605051716273	989.457368501593	627.240475956028	522.963844993718	1018.679495169654	521.818059737432	546.498292615655	864.335675330166	746.379969902208	310.811864871077	761.022434863906	637.528584348482	258.353643921317	836.342636777426	554.136996215075	321.498465123168	828.975701356768	486.263680117448	334.395502256831	802.343294376334	417.006050495840	329.684764571206	708.699819145677	301.972454000068	288.249037152188	762.945252450281	194.147132529854	363.308802511811	961.746035935249	436.378318741922	551.450910680367	855.849506229295	363.598611016596	608.109819277261	874.300076956868	255.605979653307	558.285038991088	700.963937194759	135.945036649040	522.677171060326	877.748943443728	135.569822845042	574.644239136919	771.421356023200	101.976473987411	601.990343690621	970.789093689042	49.405604035339	609.816211633295	635.578767513094	38.096346654085	418.202578674215	707.083366662909	34.786703164014	334.860413337390	791.312057233492	96.207181659619	357.177476357187	918.436884514967	44.888443497811	326.608481976715	816.287205799266	1086.161742365118	124.256128008180	1027.724495903809	935.516474942110	146.911378406273	737.324236275319	1104.019049697826	703.056400251195	769.867959967948	844.089991809740	716.115171369814	
107	7.999571428571	618.154659923766	1007.507905586379	434.279258473244	785.690776067669	1436.711123666995	247.176758398411	886.987166629823	1372.450471537168	411.114604918897	798.743605673619	1445.662562306071	582.071792695943	768.605606331926	1499.666929184960	398.567730589966	843.724305739623	950.049378780432	552.782714841893	836.509377708005	968.268564045117	277.689663537628	931.731695395035	784.116615084957	525.972654533750	897.426074523855	661.733366332270	601.739279220384	988.583271691567	627.242118843019	522.897382918253	1019.110059169971	523.748138814879	546.385526941082	862.257231140102	745.289354858847	310.719218484444	757.378637371250	637.522132124666	257.983528606912	831.384574197281	553.333608267940	321.164033646212	823.226528577646	485.692669791706	334.055147907789	796.387482537238	416.667938687380	329.401199439228	702.207843077416	301.999507975438	287.896607783814	756.045687234058	194.008299037599	363.159906036901	966.009996686905	437.103632928796	551.665410189503	864.408058896882	359.186667807309	609.131396288491	888.149596573626	252.129521286304	559.277072434657	721.230941731143	123.603707168406	524.568873414391	897.897956578619	132.289241323473	575.809483605820	793.630692261284	93.520368592835	603.843878443395	995.295788910767	51.172970304497	610.876463763406	628.319676206023	38.117208710015	418.125897305756	699.780534437395	34.760163614551	334.836726259777	784.024763473847	96.210164529434	357.108716617634	911.128621331832	44.909659300471	326.586673281194	817.720273103257	1086.018471185740	124.152108721940	1034.230960124931	943.109682171777	146.652567589035	726.730187894375	1106.953419711296	704.677282514432	749.434989474943	846.538263539998	721.335693391816	
108	8.011642857143	618.078048728825	1007.140759182496	433.595576926683	786.514882628820	1436.259569143126	247.196176391964	886.869905866471	1372.063852096275	411.709443617318	797.663861378215	1445.334505437630	582.141388654249	768.610648732986	1499.256351655314	398.528685186167	843.189425606744	949.632467354209	552.890041432117	836.728018241346	967.746928944479	277.832567700485	930.577248200640	783.615002033862	525.976580950144	896.289643200989	661.152026461080	601.936865041656	987.202672479789	626.749822441102	522.890454368552	1018.960052526751	525.286895572212	546.249370690343	860.239929660639	744.119829774278	310.734537331836	753.798677024639	637.487206282409	257.693375104420	826.444682516839	552.500369444788	320.963164977749	817.525059032319	485.114091129723	333.822447107427	790.458126864838	416.328603067763	329.209765096599	695.775863756333	302.022085003777	287.588347930836	749.162419694631	193.857135928454	363.066696328928	969.803349550654	437.652722722344	551.851492283407	872.856735960797	354.748641766290	610.179339857490	901.881894024489	248.952502141176	560.207216452082	741.960077847070	111.806150178031	526.391339954271	918.048550353517	129.588714105268	576.844485392406	816.152536143177	85.671003418219	605.570647452738	1019.588536476071	53.770503346516	611.676788222673	621.055121827360	38.139740735472	418.056016927830	692.474316942971	34.735543516496	334.818755390784	776.730431360499	96.204288854022	357.063717682787	903.813352901547	44.929549709328	326.569646035778	819.058545916509	1085.684317517306	124.239091313751	1040.124190944064	950.313016997520	146.434195990080	716.234211812423	1110.138853242497	706.309740071948	729.965389776269	849.704656309004	726.087708915437	
109	8.023714285714	618.093112459109	1006.670287509237	433.014928852646	787.366149925691	1435.674473516981	247.338117935881	886.813765866784	1371.567533340144	412.410292193355	796.687507311813	1444.949953162490	582.311545731751	768.659883888426	1498.720718590191	398.605074699329	842.708079304754	949.060315732583	553.151270487645	836.998891106420	967.113074147028	278.135790690449	929.200145426144	782.722151803443	526.096332042995	894.721351817193	660.221561573601	602.222007139090	985.388382393664	625.808337903265	522.978940148268	1018.287063862449	526.443470170473	546.125045078286	858.278874587970	742.875963390032	310.876586169767	750.296063673288	637.424671041032	257.485264025694	821.538708990231	551.640682493481	320.899029481113	811.886589348334	484.522536327821	333.693786380324	784.562835172023	415.990971945983	329.102391277533	689.401141406687	302.048793955230	287.322507008715	742.296286612479	193.698361405174	363.018546240262	973.131437430860	438.051327990583	552.030117131161	881.114563980071	350.372190839180	611.202805902675	915.367163581664	246.152357349718	561.035691711852	762.923192238851	100.755262660698	528.030008555515	937.999678056135	127.516983277527	577.700275606375	838.726302324820	78.540149297020	607.052931642795	1043.404092111515	57.145379939359	612.172937451386	613.780766375043	38.168122070152	417.995131018592	685.164144838156	34.714529422351	334.805146281370	769.430249062886	96.187644901220	357.039395406514	896.490578175409	44.942406920580	326.557474725630	820.323675729793	1085.187320645714	124.502417098282	1045.412394159069	957.040885896092	146.257350537263	705.960481359162	1113.530887157698	707.889020142985	711.502023797583	853.398213047781	730.403968062964	
